<svg id="Layer_2" data-name="Layer 2" xmlns="http://www.w3.org/2000/svg" xmlns:xlink="http://www.w3.org/1999/xlink" width="190.4" height="27.89" viewBox="0 0 190.4 27.89">
  <defs>
    <style>
      .cls-1 {
        fill: none;
      }

      .cls-2 {
        clip-path: url(#clip-path);
      }

      .cls-3 {
        fill: #fff;
      }

      .cls-4 {
        fill: #3ca2ec;
      }

      .cls-5 {
        fill: #344274;
      }

      .cls-6 {
        stroke: #000;
        stroke-width: 0.41px;
        opacity: 0.24;
        isolation: isolate;
      }

      .cls-7, .cls-8 {
        fill: #f9d217;
      }

      .cls-8 {
        stroke: #f9d217;
        stroke-linecap: round;
        stroke-miterlimit: 4;
        stroke-width: 1.24px;
      }
    </style>
    <clipPath id="clip-path" transform="translate(-4.53 -5.91)">
      <rect class="cls-1" y="1" width="200.29" height="37.5"/>
    </clipPath>
  </defs>
  <g class="cls-2">
    <g id="Custom_Size_1" data-name="Custom Size 1">
      <rect id="Rectangle_1" data-name="Rectangle 1" class="cls-3" y="0.45" width="82.84" height="26.38" rx="3.3"/>
      <g id="ZeusLearning_logo" data-name="ZeusLearning logo">
        <path id="Rounded_Rectangle_506" data-name="Rounded Rectangle 506" class="cls-4" d="M9.73,9.24H14A2.72,2.72,0,0,1,16.73,12h0v4.33A2.71,2.71,0,0,1,14,19H9.73A2.72,2.72,0,0,1,7,16.29H7V12A2.71,2.71,0,0,1,9.72,9.24Z" transform="translate(-4.53 -5.91)"/>
        <path id="Rounded_Rectangle_506_copy" data-name="Rounded Rectangle 506 copy" class="cls-4" d="M20.73,9.24H25A2.73,2.73,0,0,1,27.74,12h0v4.33A2.72,2.72,0,0,1,25,19H20.73A2.72,2.72,0,0,1,18,16.29h0V12a2.7,2.7,0,0,1,2.66-2.72Z" transform="translate(-4.53 -5.91)"/>
        <path id="Rounded_Rectangle_506_copy_2" data-name="Rounded Rectangle 506 copy 2" class="cls-4" d="M9.73,20.29H14A2.71,2.71,0,0,1,16.73,23h0v4.32A2.72,2.72,0,0,1,14,30.06H9.73A2.72,2.72,0,0,1,7,27.34H7V23a2.68,2.68,0,0,1,2.66-2.72Z" transform="translate(-4.53 -5.91)"/>
        <circle id="Ellipse_1" data-name="Ellipse 1" class="cls-5" cx="18.34" cy="19.24" r="4.9"/>
        <g id="Group_1" data-name="Group 1">
          <path id="Path_1" data-name="Path 1" class="cls-4" d="M31.16,29.85V20.41h1v8.33H36v1.11Z" transform="translate(-4.53 -5.91)"/>
          <path id="Path_2" data-name="Path 2" class="cls-4" d="M37.26,29.85V20.41h5.6v1.11H38.29v2.89h4.28v1.11H38.29v3.22H43v1.11Z" transform="translate(-4.53 -5.91)"/>
          <path id="Path_3" data-name="Path 3" class="cls-4" d="M43.6,29.85l3-9.44h1.11l3.18,9.44H49.7L48.8,27H45.54l-.82,2.84ZM45.79,26h2.64l-.83-2.59c-.25-.78-.41-1.44-.54-2a12.47,12.47,0,0,1-.41,1.81Z" transform="translate(-4.53 -5.91)"/>
          <path id="Path_4" data-name="Path 4" class="cls-4" d="M51.64,29.85V20.41h3.42a4.21,4.21,0,0,1,1.61.25,1.68,1.68,0,0,1,.82.86A3.05,3.05,0,0,1,57.82,23a2.61,2.61,0,0,1-.58,1.73,2.32,2.32,0,0,1-1.6.82,2.44,2.44,0,0,1,.66.54,9,9,0,0,1,.82,1.19l1.36,2.56H57.2l-1-2a16.31,16.31,0,0,0-.9-1.57,1.73,1.73,0,0,0-.58-.53,2.1,2.1,0,0,0-.78-.13h-1.2v4.21H51.64Zm1-5.28h2.18A2.68,2.68,0,0,0,56,24.41a1.19,1.19,0,0,0,.57-.54,1.45,1.45,0,0,0,.21-.86,1.37,1.37,0,0,0-.41-1.12,1.74,1.74,0,0,0-1.24-.41H52.67Z" transform="translate(-4.53 -5.91)"/>
          <path id="Path_5" data-name="Path 5" class="cls-4" d="M59.43,29.85V20.41h1l4.08,7.42V20.41h1v9.44h-1l-4.08-7.42v7.42Z" transform="translate(-4.53 -5.91)"/>
          <path id="Path_6" data-name="Path 6" class="cls-4" d="M67.47,29.85V20.41h1v9.44Z" transform="translate(-4.53 -5.91)"/>
          <path id="Path_7" data-name="Path 7" class="cls-4" d="M70.23,29.85V20.41h1l4.08,7.42V20.41h1v9.44h-1l-4.08-7.42v7.42Z" transform="translate(-4.53 -5.91)"/>
          <path id="Path_8" data-name="Path 8" class="cls-4" d="M81.72,26.18V25.07H85v3.5a5.35,5.35,0,0,1-1.56,1.11,3.94,3.94,0,0,1-1.65.38,3.77,3.77,0,0,1-2-.58,3.93,3.93,0,0,1-1.4-1.65,6.13,6.13,0,0,1-.54-2.6,5.91,5.91,0,0,1,.54-2.68,4.08,4.08,0,0,1,1.36-1.69,3.6,3.6,0,0,1,2-.53,3.19,3.19,0,0,1,1.49.33,2.45,2.45,0,0,1,1,.91,4.41,4.41,0,0,1,.62,1.6L84,23.5a3.9,3.9,0,0,0-.45-1.19,2.07,2.07,0,0,0-1.78-.83,2.47,2.47,0,0,0-1.44.41,3,3,0,0,0-1,1.28,5.41,5.41,0,0,0-.37,2.1,4.25,4.25,0,0,0,.79,2.85,2.62,2.62,0,0,0,2.06.95A2.75,2.75,0,0,0,83,28.78a3.18,3.18,0,0,0,1-.7V26.3H81.72Z" transform="translate(-4.53 -5.91)"/>
        </g>
        <g id="Group_2" data-name="Group 2">
          <path id="Path_9" data-name="Path 9" class="cls-5" d="M31.49,9.61h8v1.82l-5.15,5.35h5.32v2H31V16.87l5.07-5.32H31.49Z" transform="translate(-4.53 -5.91)"/>
          <path id="Path_10" data-name="Path 10" class="cls-5" d="M40.92,9.61h7.59v1.94H43.77V13h4.41v1.86H43.77v1.81h4.86v2.06H40.92Z" transform="translate(-4.53 -5.91)"/>
          <path id="Path_11" data-name="Path 11" class="cls-5" d="M56.09,9.61h2.8v5.44a4.94,4.94,0,0,1-.24,1.53,3.28,3.28,0,0,1-.79,1.28,3,3,0,0,1-1.11.74,5.8,5.8,0,0,1-2,.29c-.45,0-1,0-1.44-.09A4.63,4.63,0,0,1,52,18.43a3.32,3.32,0,0,1-1.61-1.85A6,6,0,0,1,50.16,15V9.61H53v5.57a1.46,1.46,0,0,0,.41,1.15,1.82,1.82,0,0,0,2.31,0,1.54,1.54,0,0,0,.41-1.19V9.61Z" transform="translate(-4.53 -5.91)"/>
          <path id="Path_12" data-name="Path 12" class="cls-5" d="M60.29,15.71,63,15.55a1.63,1.63,0,0,0,.37,1,1.45,1.45,0,0,0,1.24.53,1.32,1.32,0,0,0,1-.29,1,1,0,0,0,.33-.65.79.79,0,0,0-.33-.62A3.41,3.41,0,0,0,64.09,15a6.16,6.16,0,0,1-2.64-1.11,2.13,2.13,0,0,1-.78-1.77,2.2,2.2,0,0,1,.41-1.32,2.9,2.9,0,0,1,1.23-1,5.5,5.5,0,0,1,2.27-.37,4.49,4.49,0,0,1,2.68.66,2.83,2.83,0,0,1,1.11,2.06l-2.68.16a1.47,1.47,0,0,0-.45-.9,1.32,1.32,0,0,0-.95-.29,1.22,1.22,0,0,0-.74.2.62.62,0,0,0-.25.5.59.59,0,0,0,.21.41,2,2,0,0,0,.95.33,10,10,0,0,1,2.63.82,2.82,2.82,0,0,1,1.16,1,2.62,2.62,0,0,1,.37,1.36,2.79,2.79,0,0,1-.5,1.61,2.9,2.9,0,0,1-1.36,1.11,5.57,5.57,0,0,1-2.18.38c-1.57,0-2.64-.29-3.21-.91A3.66,3.66,0,0,1,60.29,15.71Z" transform="translate(-4.53 -5.91)"/>
        </g>
      </g>
      <g id="Group_1-2" data-name="Group 1-2">
        <path id="Union_4" data-name="Union 4" class="cls-6" d="M107,33.13l-.13-.09a2.38,2.38,0,0,1-1-1.23,2.51,2.51,0,0,1-.61-.46c-.22-.24-.56-.67-.37-1,0,0,0-.05,0-.06a1.42,1.42,0,0,1-.26-.29,1.16,1.16,0,0,1-.19-.85,7.63,7.63,0,0,0-1.85-2.55h0a17.38,17.38,0,0,1-2.36-2.71A9.58,9.58,0,0,1,99,21.18a7,7,0,0,1-.24-2.65,7.71,7.71,0,0,1,.82-2.65,7.46,7.46,0,0,1,4.06-3.71,6.7,6.7,0,0,1,5.37.32,7.15,7.15,0,0,1,3.6,4.23c.79,2.59-.09,5-.94,7.24h0c-.06.18-.12.36-.19.52s-.09.25-.13.37a3.56,3.56,0,0,0-.21,1.41c0,.07-.07.15-.11.22a.71.71,0,0,1,.45-.12,1.22,1.22,0,0,1,.73.39,1.61,1.61,0,0,1,0,1.87,1.69,1.69,0,0,1,0,1.66,3.14,3.14,0,0,1-2.76,3.27,3.73,3.73,0,0,1-2.38-.42Zm.22-.54.09.06a3.31,3.31,0,0,0,2,.31A2.72,2.72,0,0,0,111,32a2.3,2.3,0,0,0,.46-1.06,7.7,7.7,0,0,1-1.8.88,6.84,6.84,0,0,1-2,.4h-.17a3.94,3.94,0,0,1-.77-.07h0a3.33,3.33,0,0,0,.51.48Zm-1.53-1.69a2.13,2.13,0,0,0,1,.57,6.73,6.73,0,0,0,4.66-1.22l.19-.17a1,1,0,0,0,.19-.92,7.33,7.33,0,0,1-5.9,1.53,2.25,2.25,0,0,0-.36-.06,1.39,1.39,0,0,0,.21.27Zm-.62-1.68a.56.56,0,0,0,.11.41c.23.36.81.46,1.31.54a6.6,6.6,0,0,0,3.81-.84,5.24,5.24,0,0,0,1.2-.83,1.11,1.11,0,0,0,.24-1.34.52.52,0,0,0-.33-.18h0l-.09,0a7,7,0,0,1-5.71,2.21h-.44S105.05,29.2,105.05,29.22Zm-5-13c-1.66,3.3-.72,6.46,3,9.94l0,0a8.24,8.24,0,0,1,1.87,2.51,1.09,1.09,0,0,1,.26,0h.45a8.34,8.34,0,0,0,1.8-.1l-.87-5a3.3,3.3,0,0,1-.86-.22,2.23,2.23,0,0,1-1.23-1.77,1.21,1.21,0,0,1,.45-1.19.9.9,0,0,1,.84-.06c.56.24,1,1,1.22,2.37l.06.3a2.26,2.26,0,0,0,.81-.21c0-.1,0-.22-.06-.36-.13-.84-.31-2,.15-2.54a.87.87,0,0,1,.66-.3,1,1,0,0,1,1,.75,2.69,2.69,0,0,1-.87,2.64l-.22.13a24,24,0,0,0,1.5,4.34l.6-.48a4.52,4.52,0,0,1,.2-2.22,1,1,0,0,0,0-.16v0c.08-.23.17-.47.26-.7h0c.86-2.28,1.66-4.44.93-6.82a6.54,6.54,0,0,0-3.3-3.86,6.22,6.22,0,0,0-2.83-.69,6.61,6.61,0,0,0-5.82,3.8Zm7,7.3.87,4.88a5.56,5.56,0,0,0,1-.39l.5-.28a28.88,28.88,0,0,1-1.56-4.41,2.68,2.68,0,0,1-.79.19Zm-1.86-2.69a.67.67,0,0,0-.2.63,1.6,1.6,0,0,0,.85,1.27,2.38,2.38,0,0,0,.52.15l0-.15c-.28-1.52-.71-1.85-.87-1.92a.17.17,0,0,0-.14,0c-.1,0-.16,0-.13,0Zm3.11-.62c-.28.33-.11,1.46,0,2.06,0,0,0,.09,0,.13a2.15,2.15,0,0,0,.62-1.94c-.09-.28-.25-.33-.4-.33a.3.3,0,0,0-.22.08ZM97.24,26a.3.3,0,0,1,.13-.4l1.52-.8a.29.29,0,0,1,.39.13h0a.3.3,0,0,1-.13.41l-1.51.8-.14,0a.32.32,0,0,1-.26-.17Zm-.17-6-1.66-.56a.3.3,0,0,1,.17-.57l1.67.56a.31.31,0,0,1,.19.38.31.31,0,0,1-.28.2.14.14,0,0,1-.09,0Zm17.76-.63A.3.3,0,0,1,115,19h0l1.72-.5a.3.3,0,0,1,.36.2h0a.32.32,0,0,1-.21.38h0l-1.72.49a.15.15,0,0,1-.09,0,.28.28,0,0,1-.28-.22ZM98.15,14.75a8,8,0,0,0-2.06-1.23.31.31,0,0,1-.16-.39.29.29,0,0,1,.38-.17,8.81,8.81,0,0,1,2.25,1.37.3.3,0,0,1,0,.42h0a.28.28,0,0,1-.4,0Zm15.64-.24a.3.3,0,0,1,.09-.4h0l1.76-1.06a.3.3,0,0,1,.39.08v0a.3.3,0,0,1-.09.4h0l-1.76,1.06a.26.26,0,0,1-.15,0,.29.29,0,0,1-.25-.15Zm-3.87-3.86a.3.3,0,0,1-.12-.39v0L111,8.33a.27.27,0,0,1,.36-.12l0,0a.29.29,0,0,1,.12.39v0l-1.14,1.9a.24.24,0,0,1-.25.15.18.18,0,0,1-.14,0Zm-7-.49a14.23,14.23,0,0,1-.6-2.6.3.3,0,0,1,.59,0,13.11,13.11,0,0,0,.57,2.42.3.3,0,0,1-.19.38l-.09,0a.31.31,0,0,1-.28-.21Z" transform="translate(-4.53 -5.91)"/>
        <path id="Path_3673-2" data-name="Path 3673-2" class="cls-3" d="M136.82,19.71a7.67,7.67,0,0,1-.41,2.56,6.2,6.2,0,0,1-1.17,2l1.24,1.21-1.41,1.24-1.31-1.22a6.39,6.39,0,0,1-3.14.81,6.21,6.21,0,0,1-3.31-.86,5.6,5.6,0,0,1-2.13-2.34,7.28,7.28,0,0,1-.73-3.31,7.22,7.22,0,0,1,.77-3.41,5.72,5.72,0,0,1,2.17-2.35,6.47,6.47,0,0,1,3.23-.9,6.23,6.23,0,0,1,3.32.87,5.64,5.64,0,0,1,2.15,2.34,7.48,7.48,0,0,1,.73,3.32Zm-6.22,4.62a3.57,3.57,0,0,0,1.52-.31l-1.52-1.41,1.64-1.24,1.35,1.32a5.61,5.61,0,0,0,.72-3,5.57,5.57,0,0,0-.44-2.32,3.71,3.71,0,0,0-1.28-1.6,3.39,3.39,0,0,0-1.93-.57,3.3,3.3,0,0,0-1.85.56,4.09,4.09,0,0,0-1.35,1.62,5.41,5.41,0,0,0-.51,2.41,5.89,5.89,0,0,0,.45,2.35,3.62,3.62,0,0,0,1.27,1.6,3.3,3.3,0,0,0,1.93.56Zm13-1a10.41,10.41,0,0,1-1.22.77,2.61,2.61,0,0,1-1.19.29,1.13,1.13,0,0,1-.95-.47,2.2,2.2,0,0,1-.35-1.3V17.1h-2.41v5.64a4.66,4.66,0,0,0,.69,2.69,2.74,2.74,0,0,0,2.39,1,5.4,5.4,0,0,0,1.69-.33,7.55,7.55,0,0,0,1.78-.93l.41,1h1.57v-9h-2.41Zm4.43-3.65a5.73,5.73,0,0,1,1.27-.42,6.09,6.09,0,0,1,1.35-.18,1.44,1.44,0,0,1,1.05.38,1.5,1.5,0,0,1,.4,1.07h-1.76a3.83,3.83,0,0,0-2.49.75A2.58,2.58,0,0,0,147,23.4a2.82,2.82,0,0,0,.82,2.13,3.4,3.4,0,0,0,2.43.79,3.32,3.32,0,0,0,2.37-1.19l.41,1h1.58V20.18a3,3,0,0,0-.53-1.71,3.65,3.65,0,0,0-1.42-1.19,4.41,4.41,0,0,0-2-.42,7.42,7.42,0,0,0-1.69.25,5,5,0,0,0-1.54.56Zm1,3.72a1.21,1.21,0,0,1,.36-.89,1.3,1.3,0,0,1,1-.37h1.81v1.37a2.78,2.78,0,0,1-2,.9,1.2,1.2,0,0,1-.83-.3,1,1,0,0,1-.32-.71Zm9-3.54a9.75,9.75,0,0,1,1.23-.77,2.55,2.55,0,0,1,1.19-.29,1.13,1.13,0,0,1,.95.47,2.12,2.12,0,0,1,.34,1.3v5.52h2.42V20.45a4.66,4.66,0,0,0-.69-2.69,2.75,2.75,0,0,0-2.39-1,5.4,5.4,0,0,0-1.69.33,7.18,7.18,0,0,0-1.78.93l-.41-1h-1.58v9h2.42Zm10-2.74V14.56l-2.39.42v2.14h-1.21V19h1.21v4.25a3,3,0,0,0,.95,2.39,3.74,3.74,0,0,0,2.63.85,3.31,3.31,0,0,0,1-.16,2.53,2.53,0,0,0,.83-.39l-.7-1.74a2.44,2.44,0,0,1-1,.24,1.14,1.14,0,0,1-1-.45,1.87,1.87,0,0,1-.34-1.17V19h2.37l-.74-1.85Zm9.46,6.21a9.64,9.64,0,0,1-1.22.77,2.58,2.58,0,0,1-1.19.29,1.13,1.13,0,0,1-.95-.47,2.12,2.12,0,0,1-.35-1.29V17.1h-2.41v5.64a4.66,4.66,0,0,0,.69,2.69,2.74,2.74,0,0,0,2.39,1,5.4,5.4,0,0,0,1.69-.33,7.18,7.18,0,0,0,1.78-.93l.41,1h1.58v-9h-2.42ZM192,16.8a2.72,2.72,0,0,1,2.22.83,3.74,3.74,0,0,1,.67,2.45v6h-2.41V20.57a2.61,2.61,0,0,0-.26-1.32.93.93,0,0,0-.85-.45,2.12,2.12,0,0,0-1,.26,11.55,11.55,0,0,0-1.18.79v6.24h-2.42V20.57a2.51,2.51,0,0,0-.27-1.32.9.9,0,0,0-.84-.45,2.12,2.12,0,0,0-1,.26,14.06,14.06,0,0,0-1.21.8v6.23H181v-9h1.58l.41,1a7.94,7.94,0,0,1,1.72-.93,4.68,4.68,0,0,1,1.56-.33A2.58,2.58,0,0,1,188.79,18a7.65,7.65,0,0,1,1.7-.89A4.52,4.52,0,0,1,192,16.8Z" transform="translate(-4.53 -5.91)"/>
        <g id="Illustrated_bulb_svg" data-name="Illustrated bulb svg">
          <g id="Group_1409" data-name="Group 1409">
            <g id="Group_1408" data-name="Group 1408">
              <g id="Group_1407" data-name="Group 1407">
                <path id="Path_3642" data-name="Path 3642" class="cls-3" d="M108.32,27.63l.29-.08a7,7,0,0,0,2.12-.94l.19-.14-.1-.21a25.75,25.75,0,0,1-1.58-4.41l.21-.13a2.5,2.5,0,0,0,.84-2.49.93.93,0,0,0-.93-.71.8.8,0,0,0-.64.28c-.44.51-.27,1.61-.14,2.41a2.63,2.63,0,0,0,.06.34,2.42,2.42,0,0,1-.79.2l-.06-.28c-.24-1.27-.64-2-1.18-2.26a.89.89,0,0,0-.81.06,1.13,1.13,0,0,0-.45,1.13,2.12,2.12,0,0,0,1.2,1.68,3.51,3.51,0,0,0,.83.22Zm1.89-1.34a6.39,6.39,0,0,1-1.44.64l-.84-4.64a3,3,0,0,0,.77-.18A26.08,26.08,0,0,0,110.21,26.29Zm-3.95-6.59a.16.16,0,0,1,.13,0c.15.07.57.38.83,1.82l0,.14a3.12,3.12,0,0,1-.5-.14,1.53,1.53,0,0,1-.82-1.21.62.62,0,0,1,.2-.6s0,0,.13,0Zm3.09-.62h0c.14,0,.3.05.38.32a2,2,0,0,1-.6,1.84s0-.09,0-.13c-.08-.57-.26-1.64,0-1.95a.35.35,0,0,1,.22-.08Z" transform="translate(-4.53 -5.91)"/>
              </g>
            </g>
            <g id="Group_1400" data-name="Group 1400">
              <g id="Group_1399" data-name="Group 1399">
                <path id="Path_3638" data-name="Path 3638" class="cls-7" d="M107.92,29.27a7.37,7.37,0,0,0,3.34-.92,5.42,5.42,0,0,0,1.3-.88,1.57,1.57,0,0,0,.27-2,1.1,1.1,0,0,0-.71-.37.61.61,0,0,0-.5.17,6.41,6.41,0,0,1-5.13,2H106a.63.63,0,0,0-.6.33,1,1,0,0,0,.13,1,2.4,2.4,0,0,0,1.66.76C107.46,29.25,107.69,29.27,107.92,29.27Zm4.15-3.64h0a.48.48,0,0,1,.31.17c.3.36.07,1-.23,1.27a4.91,4.91,0,0,1-1.17.79,6.42,6.42,0,0,1-3.69.8c-.48-.08-1-.18-1.27-.52a.52.52,0,0,1-.1-.38s0,0,.09,0h.42A6.88,6.88,0,0,0,112,25.65l.08,0Z" transform="translate(-4.53 -5.91)"/>
              </g>
            </g>
            <g id="Group_1402" data-name="Group 1402">
              <g id="Group_1401" data-name="Group 1401">
                <path id="Path_3639" data-name="Path 3639" class="cls-7" d="M108.31,30.57h.17A7.26,7.26,0,0,0,112.64,29a1.52,1.52,0,0,0,.1-1.85l-.17-.26-.24.2a7,7,0,0,1-5.52,1.59c-.38-.09-.85-.16-1,.17s.15.75.36,1A3,3,0,0,0,108.31,30.57Zm4.09-2.87a.89.89,0,0,1-.18.87A6.94,6.94,0,0,1,108.47,30a2.51,2.51,0,0,1-1.93-.63,1.79,1.79,0,0,1-.2-.26,1.86,1.86,0,0,1,.34.06,7.22,7.22,0,0,0,5.72-1.45Z" transform="translate(-4.53 -5.91)"/>
              </g>
            </g>
            <g id="Group_1404" data-name="Group 1404">
              <g id="Group_1403" data-name="Group 1403">
                <path id="Path_3640" data-name="Path 3640" class="cls-7" d="M109.56,31.9a2.59,2.59,0,0,0,.56,0,3.14,3.14,0,0,0,2-1.15,3,3,0,0,0,.62-2l0-.53-.43.32a6.48,6.48,0,0,1-5.25,1.28l-.4-.1,0,.4c0,.06.09.63,1,1.27l.13.09A3.34,3.34,0,0,0,109.56,31.9Zm2.6-2.55a2.15,2.15,0,0,1-.44,1,2.61,2.61,0,0,1-1.69.95,3.27,3.27,0,0,1-1.92-.29L108,31a3.64,3.64,0,0,1-.5-.46A7.18,7.18,0,0,0,112.16,29.35Z" transform="translate(-4.53 -5.91)"/>
              </g>
            </g>
          </g>
          <g id="Group_1410" data-name="Group 1410">
            <path id="Path_3643" data-name="Path 3643" class="cls-3" d="M115.35,18.64a.15.15,0,0,0,.09,0l1.67-.47a.29.29,0,0,0-.16-.55h0l-1.67.47a.29.29,0,0,0-.2.35h0A.28.28,0,0,0,115.35,18.64Z" transform="translate(-4.53 -5.91)"/>
          </g>
          <g id="Group_1411" data-name="Group 1411">
            <path id="Path_3644" data-name="Path 3644" class="cls-3" d="M114.65,13.3a.26.26,0,0,0,.15,0l1.71-1a.28.28,0,0,0-.29-.49h0l-1.71,1a.27.27,0,0,0-.11.36v0A.27.27,0,0,0,114.65,13.3Z" transform="translate(-4.53 -5.91)"/>
          </g>
          <g id="Group_1412" data-name="Group 1412">
            <path id="Path_3645" data-name="Path 3645" class="cls-3" d="M110.48,9.2a.29.29,0,0,0,.25-.14l1.09-1.81a.27.27,0,0,0-.11-.38.27.27,0,0,0-.37.09l-1.1,1.81a.28.28,0,0,0,.08.38h0a.23.23,0,0,0,.14,0Z" transform="translate(-4.53 -5.91)"/>
          </g>
          <g id="Group_1413" data-name="Group 1413">
            <path id="Path_3646" data-name="Path 3646" class="cls-3" d="M103.86,8.86a.14.14,0,0,0,.09,0,.29.29,0,0,0,.18-.36h0a12.76,12.76,0,0,1-.56-2.29.28.28,0,0,0-.28-.29.29.29,0,0,0-.29.29,13.77,13.77,0,0,0,.59,2.46A.29.29,0,0,0,103.86,8.86Z" transform="translate(-4.53 -5.91)"/>
          </g>
          <g id="Group_1414" data-name="Group 1414">
            <path id="Path_3647" data-name="Path 3647" class="cls-3" d="M98.77,13.44a.25.25,0,0,0,.2-.09A.27.27,0,0,0,99,13h0a8.26,8.26,0,0,0-2.18-1.29.27.27,0,0,0-.36.16.28.28,0,0,0,.15.36,7.89,7.89,0,0,1,2,1.17A.25.25,0,0,0,98.77,13.44Z" transform="translate(-4.53 -5.91)"/>
          </g>
          <g id="Group_1415" data-name="Group 1415">
            <path id="Path_3648" data-name="Path 3648" class="cls-3" d="M97.61,18.7a.28.28,0,0,0,.1-.55h0l-1.61-.52a.28.28,0,0,0-.36.18h0a.28.28,0,0,0,.17.35h0l1.61.53Z" transform="translate(-4.53 -5.91)"/>
          </g>
          <g id="Group_1416" data-name="Group 1416">
            <path id="Path_3649" data-name="Path 3649" class="cls-3" d="M98,24.56l.13,0,1.47-.76a.29.29,0,0,0-.21-.54l0,0L97.83,24a.28.28,0,0,0-.13.38h0a.31.31,0,0,0,.26.15Z" transform="translate(-4.53 -5.91)"/>
          </g>
          <g id="Group_2361" data-name="Group 2361">
            <path id="Subtraction_6" data-name="Subtraction 6" class="cls-8" d="M105.22,26.21h0a6.89,6.89,0,0,0-1.77-2.07h0a15.56,15.56,0,0,1-2.38-2.35,8.18,8.18,0,0,1-1.34-2.35,5.56,5.56,0,0,1-.31-2.36,6.46,6.46,0,0,1,.7-2.4,7.06,7.06,0,0,1,3.82-3.47,6.93,6.93,0,0,1,5.2.11A6.55,6.55,0,0,1,112.75,15c.85,2.29.07,4.44-.69,6.51h0c0,.16-.11.31-.16.47l-.12.33a3.15,3.15,0,0,0-.11,1.64l-.6-.15a3.73,3.73,0,0,1,.17-1.66l.06-.17c.07-.21.15-.43.23-.64h0c.76-2.08,1.47-4,.68-6.15a6,6,0,0,0-3.31-3.35,6.38,6.38,0,0,0-8.28,3.09c-1.5,3-.49,5.81,3.18,8.81h0a7.25,7.25,0,0,1,1.71,1.91l-.31.57Z" transform="translate(-4.53 -5.91)"/>
            <path id="Path_3671" data-name="Path 3671" class="cls-7" d="M106.1,25.56s.82,1.34.25,1.82-.86.36-1.15-.09S106.1,25.56,106.1,25.56Z" transform="translate(-4.53 -5.91)"/>
            <path id="Path_3672" data-name="Path 3672" class="cls-7" d="M110.64,24.21s.18,1.55.82,1.61,1.13-.36.92-1.18S110.64,24.21,110.64,24.21Z" transform="translate(-4.53 -5.91)"/>
          </g>
        </g>
      </g>
    </g>
  </g>
</svg>
